<?xml version="1.0" encoding="iso-8859-1"?>
<!-- Generator: Adobe Illustrator 19.0.0, SVG Export Plug-In . SVG Version: 6.00 Build 0)  -->
<svg version="1.1" id="Capa_1" xmlns="http://www.w3.org/2000/svg" xmlns:xlink="http://www.w3.org/1999/xlink" x="0px" y="0px"
	 viewBox="0 0 489.075 489.075" style="enable-background:new 0 0 489.075 489.075;" xml:space="preserve">
<g>
	<g>
		<path d="M489,348.137v-231.7c0-32.7-23.5-58.2-53.1-58.2H100c-3.1,0-7.1,1-10.2,3.1c-66.3,40.8-88.8,154.1-89.8,159.2
			c0,2,0,3.1,0,4.1v124.5c0,11.2,9.2,20.4,20.4,20.4h32.9c8.5,35.4,40,61.3,77.3,61.3s68.8-25.9,77.3-61.3h66.9
			c8.5,35.4,40,61.3,77.3,61.3s68.8-25.9,77.3-61.3h40.1C480.8,369.637,490,360.437,489,348.137z M436.9,99.037
			c6.1,0,12.3,8.2,12.3,17.4v87.8h-146v-105.2H436.9z M140.9,204.237v-105.2h121.5v105.1H140.9V204.237z M100,104.937v99.2H46.6
			C55.8,173.337,73.3,129.437,100,104.937z M130.7,390.037c-21.4,0-38.8-17.4-38.8-39.8c0-21.4,17.4-39.8,38.8-39.8
			s38.8,18.4,38.8,39.8S152.1,390.037,130.7,390.037z M352.2,390.037c-21.4,0-38.8-17.4-38.8-39.8c0-21.4,17.4-39.8,38.8-39.8
			s38.8,18.4,38.8,39.8S373.6,390.037,352.2,390.037z M429,328.737c-9.2-34.3-40.2-59.2-76.8-59.2s-67.5,24.9-76.8,59.2h-67.9
			c-9.2-34.3-40.2-59.2-76.8-59.2s-67.5,24.9-76.8,59.2h-13v-83.7h408.3v83.7H429z"/>
	</g>
</g>
<g>
</g>
<g>
</g>
<g>
</g>
<g>
</g>
<g>
</g>
<g>
</g>
<g>
</g>
<g>
</g>
<g>
</g>
<g>
</g>
<g>
</g>
<g>
</g>
<g>
</g>
<g>
</g>
<g>
</g>
</svg>
