<?xml version="1.0" encoding="iso-8859-1"?>
<!-- Generator: Adobe Illustrator 19.0.0, SVG Export Plug-In . SVG Version: 6.00 Build 0)  -->
<svg version="1.1" id="Layer_1" xmlns="http://www.w3.org/2000/svg" xmlns:xlink="http://www.w3.org/1999/xlink" x="0px" y="0px"
	 viewBox="0 0 512.001 512.001" style="enable-background:new 0 0 512.001 512.001;" xml:space="preserve">
<g>
	<g>
		<g>
			<path d="M503.099,29.924c-0.023-0.07-0.042-0.13-0.059-0.181C503.058,29.798,503.077,29.857,503.099,29.924z"/>
			<path d="M503.113,29.968c-0.005-0.015-0.01-0.029-0.014-0.044C503.104,29.939,503.108,29.952,503.113,29.968z"/>
			<path d="M503.04,29.743c-0.022-0.068-0.04-0.123-0.053-0.163C502.999,29.617,503.018,29.674,503.04,29.743z"/>
			<path d="M503.183,30.182c-0.025-0.078-0.049-0.151-0.07-0.214C503.135,30.035,503.158,30.107,503.183,30.182z"/>
			<path d="M503.319,30.602c-0.047-0.144-0.093-0.286-0.136-0.42C503.223,30.305,503.266,30.439,503.319,30.602z"/>
			<path d="M503.319,30.602c-1.231-3.79-4.445-6.501-8.391-7.075l-16.867-2.45l-7.543-15.283c-1.763-3.573-5.334-5.793-9.318-5.793
				c0,0-0.001,0-0.002,0c-3.984,0-7.555,2.219-9.32,5.793l-7.543,15.283l-16.869,2.45c-3.942,0.575-7.157,3.285-8.387,7.075
				c-1.231,3.79-0.222,7.872,2.63,10.652l12.205,11.897l-2.881,16.799c-1.426,8.32,7.587,14.894,15.08,10.954l15.085-7.932
				l15.082,7.929c7.485,3.939,16.511-2.627,15.083-10.954l-2.881-16.799l12.204-11.896C503.541,38.474,504.55,34.392,503.319,30.602
				z M473.071,43.052c-2.454,2.389-3.573,5.83-2.994,9.203l0.954,5.562l-5.003-2.63c-3.026-1.587-6.637-1.586-9.665,0.004
				l-4.994,2.625l0.955-5.57c0.574-3.373-0.545-6.81-2.99-9.191l-4.041-3.939l5.583-0.812c3.391-0.492,6.317-2.621,7.826-5.685
				l2.497-5.06l2.498,5.06c1.514,3.068,4.439,5.192,7.825,5.685l5.583,0.812L473.071,43.052z"/>
			<path d="M503.647,31.611C503.685,31.728,503.68,31.714,503.647,31.611L503.647,31.611z"/>
			<path d="M502.987,29.58C502.955,29.481,502.96,29.494,502.987,29.58L502.987,29.58z"/>
			<path d="M503.605,31.483c0.016,0.05,0.031,0.094,0.042,0.128C503.637,31.58,503.622,31.536,503.605,31.483z"/>
			<path d="M503.319,30.602c0.034,0.106,0.068,0.211,0.101,0.312C503.39,30.82,503.356,30.717,503.319,30.602z"/>
			<path d="M503.421,30.915c0.085,0.262,0.144,0.444,0.185,0.569C503.559,31.34,503.493,31.138,503.421,30.915z"/>
		</g>
	</g>
</g>
<g>
	<g>
		<path d="M297.578,250.327l-34.499-34.498c-1.686-1.688-3.975-2.635-6.36-2.635c-2.386,0-4.674,0.947-6.36,2.635L120.933,345.255
			c-1.688,1.686-2.635,3.975-2.635,6.36c0,2.386,0.948,4.674,2.635,6.36l34.499,34.498c1.756,1.756,4.059,2.635,6.36,2.635
			c2.302,0,4.604-0.878,6.36-2.635l129.425-129.425C301.091,259.535,301.091,253.839,297.578,250.327z M161.791,373.392
			l-21.777-21.777l12.208-12.208l28.201,15.353L161.791,373.392z M193.688,341.497l-28.201-15.353l11.928-11.928l28.201,15.353
			L193.688,341.497z M218.878,316.306l-28.201-15.353l11.928-11.928l28.201,15.353L218.878,316.306z M244.069,291.114
			l-28.201-15.353l11.928-11.928l28.201,15.353L244.069,291.114z M269.261,265.924L241.06,250.57l15.659-15.659l21.777,21.777
			L269.261,265.924z"/>
	</g>
</g>
<g>
	<g>
		<path d="M402.697,80.254c-4.308-2.473-9.806-0.982-12.279,3.326c-12.704,22.142-27.27,43.432-43.298,63.281
			c-17.733,21.962-37.53,42.505-58.839,61.061c-3.746,3.261-4.138,8.943-0.875,12.691c1.779,2.044,4.276,3.088,6.787,3.088
			c2.095,0,4.199-0.727,5.903-2.212c22.101-19.242,42.632-40.549,61.023-63.326c16.621-20.585,31.73-42.666,44.904-65.629
			C408.496,88.224,407.006,82.727,402.697,80.254z"/>
	</g>
</g>
<g>
	<g>
		<g>
			<path d="M290.859,87.028c-0.001-0.005-0.003-0.01-0.004-0.015C291.037,87.774,291.096,88.024,290.859,87.028z"/>
			<path d="M308.361,82.861c-3.556-14.929-9.62-29.62-17.535-42.487c-2.604-4.231-8.143-5.551-12.375-2.948
				c-4.231,2.603-5.552,8.144-2.948,12.375c6.924,11.255,12.233,24.123,15.353,37.213c-0.571-2.398-2.364-9.926,0.004,0.015
				c1.159,4.864,6.236,7.89,11.066,6.605C306.577,92.396,309.476,87.545,308.361,82.861z"/>
		</g>
	</g>
</g>
<g>
	<g>
		<g>
			<path d="M267.728,202.869C267.693,202.841,267.696,202.843,267.728,202.869L267.728,202.869z"/>
			<path d="M269.116,203.961c-0.913-0.719-1.296-1.021-1.387-1.093C268.018,203.097,270.242,204.848,269.116,203.961z"/>
			<path d="M297.48,154.503c-4.624-1.812-9.845,0.462-11.66,5.087c-4.481,11.416-10.606,22.094-18.204,31.739
				c-3.073,3.902-2.402,9.558,1.5,12.632c3.852,3.034,9.6,2.35,12.633-1.499c8.688-11.03,15.693-23.242,20.818-36.298
				C304.382,161.539,302.105,156.319,297.48,154.503z"/>
		</g>
	</g>
</g>
<g>
	<g>
		<g>
			<path d="M464.013,224.775c0.286,0.25,1.419,1.241,4.017,3.511C470.548,230.487,464.754,225.423,464.013,224.775z"/>
			<path d="M464.013,224.775C463.907,224.683,463.916,224.69,464.013,224.775L464.013,224.775z"/>
			<path d="M468.03,228.286c-10.875-9.505-40.801-31.503-83.705-30.632c-37.157,0.766-63.527,18.092-75.938,28.351
				c-3.83,3.165-4.368,8.836-1.202,12.664c3.165,3.83,8.835,4.369,12.664,1.202c10.609-8.769,33.139-23.577,64.846-24.231
				c36.608-0.77,62.196,18.064,71.495,26.19c3.97,3.47,10.249,2.703,13.28-1.6C472.086,236.518,471.448,231.273,468.03,228.286z"/>
		</g>
	</g>
</g>
<g>
	<g>
		<path d="M127.5,384.614c-3.893-3.087-9.551-2.434-12.638,1.458c-9.938,12.531-13.713,22.055-16.745,29.708
			c-2.673,6.748-4.289,10.822-9.212,14.998c-7.148,6.063-14.292,6.248-23.335,6.484c-9.981,0.259-21.294,0.553-32.946,9.121
			c-14.411,10.595-22.632,29.441-24.436,56.012c-0.336,4.956,3.409,9.247,8.366,9.584c0.207,0.014,0.413,0.022,0.618,0.022
			c4.691,0,8.644-3.638,8.967-8.387c1.428-21.043,7.196-35.423,17.144-42.736c7.104-5.223,14.011-5.403,22.755-5.631
			c10.557-0.275,22.523-0.585,34.505-10.748c8.355-7.086,11.243-14.375,14.3-22.09c2.732-6.894,5.828-14.707,14.116-25.157
			C132.045,393.358,131.393,387.701,127.5,384.614z"/>
	</g>
</g>
<g>
	<g>
		<path d="M355.191,0c-17.59,0-31.901,14.311-31.901,31.901s14.311,31.9,31.901,31.9c17.59,0,31.901-14.311,31.901-31.901
			C387.092,14.31,372.781,0,355.191,0z M355.191,45.812c-7.67,0-13.91-6.24-13.91-13.91c0-7.67,6.24-13.91,13.91-13.91
			s13.91,6.24,13.91,13.91C369.101,39.571,362.861,45.812,355.191,45.812z"/>
	</g>
</g>
<g>
	<g>
		<path d="M439.205,116.864c-17.59,0-31.901,14.311-31.901,31.901s14.311,31.901,31.901,31.901c17.59,0,31.901-14.311,31.901-31.901
			S456.795,116.864,439.205,116.864z M439.205,162.675c-7.67,0-13.91-6.24-13.91-13.91s6.24-13.91,13.91-13.91
			s13.91,6.24,13.91,13.91S446.875,162.675,439.205,162.675z"/>
	</g>
</g>
<g>
</g>
<g>
</g>
<g>
</g>
<g>
</g>
<g>
</g>
<g>
</g>
<g>
</g>
<g>
</g>
<g>
</g>
<g>
</g>
<g>
</g>
<g>
</g>
<g>
</g>
<g>
</g>
<g>
</g>
</svg>
