<?xml version="1.0" encoding="iso-8859-1"?>
<!-- Generator: Adobe Illustrator 19.0.0, SVG Export Plug-In . SVG Version: 6.00 Build 0)  -->
<svg version="1.1" id="Layer_1" xmlns="http://www.w3.org/2000/svg" xmlns:xlink="http://www.w3.org/1999/xlink" x="0px" y="0px"
	 viewBox="0 0 512.002 512.002" style="enable-background:new 0 0 512.002 512.002;" xml:space="preserve">
<g>
	<g>
		<path d="M441.784,79.925c-0.576-0.609-1.188-1.173-1.816-1.714C339.197-26.045,172.779-26.097,71.961,78.215
			c-0.627,0.54-1.238,1.104-1.813,1.711c-92.324,97.404-94.701,252.237,0,352.149c0.599,0.631,1.229,1.224,1.883,1.783
			c100.754,104.164,267.063,104.218,367.869,0c0.654-0.558,1.284-1.152,1.883-1.783C534.75,333.991,536.033,179.362,441.784,79.925z
			 M85.342,372.916c-48.71-70.863-48.116-163.835,0-233.834C123.339,210.526,124.741,298.837,85.342,372.916z M392.2,411.603
			c-78.006,68.38-194.335,68.492-272.468,0c58.213-95.102,58.408-215.784,0-311.203c78.004-68.38,194.333-68.494,272.468,0
			C333.986,195.503,333.792,316.183,392.2,411.603z M426.589,372.916c-37.893-71.247-39.495-159.571,0-233.834
			C474.909,209.381,475.118,302.315,426.589,372.916z"/>
	</g>
</g>
<g>
</g>
<g>
</g>
<g>
</g>
<g>
</g>
<g>
</g>
<g>
</g>
<g>
</g>
<g>
</g>
<g>
</g>
<g>
</g>
<g>
</g>
<g>
</g>
<g>
</g>
<g>
</g>
<g>
</g>
</svg>
